<?xml version="1.0" encoding="UTF-8"?>
<svg id="BACKSEAL" xmlns="http://www.w3.org/2000/svg" xmlns:xlink="http://www.w3.org/1999/xlink" viewBox="0 0 771.11 810">
  <defs>
    <style>
      .cls-1, .cls-2 {
        fill: #fff;
      }

      .cls-1, .cls-3 {
        stroke: #fff;
        stroke-miterlimit: 10;
      }

      .cls-3, .cls-4 {
        fill: none;
      }

      .cls-5 {
        clip-path: url(#clippath);
      }
    </style>
    <clipPath id="clippath">
      <path class="cls-1" d="M321.08,750.14c-17.36-4.74-35.21-12.45-50.61-18.6l-4.39-19.59c-96.86-43.37-150.06-119.75-177.68-173.23l257-125.36c-24.32,41.6-44.61,94.03-40.15,139.5,0,0,15.47,3.7,41.87,2.67,14.23-.56,18.56.88,23.74-3.54s3.91-6.61,17.27-10.62c17.7-5.31,31.08-29.54,36.26-29.54s14.1-.12,18.42,3.42c171.64,183.83,261.06-64.49,274.27-152.68,29.35,173.98-89.58,378.88-297.71,431.86,6.61-5.33,43.57-50.86,48.84-61.79-38.76,7.82-122.94,3.82-141.38-5.61l-5.74,23.11Z"/>
    </clipPath>
    <clipPath id="clippath-1">
      <path class="cls-4" d="M662.27,559.38c-83.84,90.93-156.94,39.74-241.51,18.45,0,0-63.11,33.36-85.33,31.6-22.22-1.76-65.65-52.95-75.93-52.02-10.28.94-34.35-42.7-42.39-59.84C37.11,201.21,402.63-71.9,663.43,193.18c-49.62-92.79-213.37-158.72-275.04-135.74,0,0-42.85-3.32-42.85-3.32-20.92,7.1-66.84,27.44-87.43,36.52-57.21,27.64-100.93,71.68-100.93,71.68-1.9,2.94-53.04,92.68-53.04,92.68l-25.21,108.77s4.04,89.64,11.9,119.95c4.29,16.55,19.93,53.82,29.71,67.85,23.78,34.1,119.57,115.57,119.57,115.57,0,0,141.55,39.68,141.55,39.68,0,0,150.35.26,150.35.26l-2.68,19.81,79.31-62.88,54.72-86.45-1.09-18.19Z"/>
    </clipPath>
  </defs>
  <polyline class="cls-1" points="92.83 506.83 109.21 541.93 231.65 485.01 214.53 445.98 108.42 498.74"/>
  <g>
    <path class="cls-2" d="M321.08,750.14c-17.36-4.74-35.21-12.45-50.61-18.6l-4.39-19.59c-96.86-43.37-150.06-119.75-177.68-173.23l257-125.36c-24.32,41.6-44.61,94.03-40.15,139.5,0,0,15.47,3.7,41.87,2.67,14.23-.56,18.56.88,23.74-3.54s3.91-6.61,17.27-10.62c17.7-5.31,31.08-29.54,36.26-29.54s14.1-.12,18.42,3.42c171.64,183.83,261.06-64.49,274.27-152.68,29.35,173.98-89.58,378.88-297.71,431.86,6.61-5.33,43.57-50.86,48.84-61.79-38.76,7.82-122.94,3.82-141.38-5.61l-5.74,23.11Z"/>
    <g class="cls-5">
      <rect class="cls-1" x="4.82" y="330.78" width="754.71" height="539.64"/>
    </g>
    <path class="cls-3" d="M321.08,750.14c-17.36-4.74-35.21-12.45-50.61-18.6l-4.39-19.59c-96.86-43.37-150.06-119.75-177.68-173.23l257-125.36c-24.32,41.6-44.61,94.03-40.15,139.5,0,0,15.47,3.7,41.87,2.67,14.23-.56,18.56.88,23.74-3.54s3.91-6.61,17.27-10.62c17.7-5.31,31.08-29.54,36.26-29.54s14.1-.12,18.42,3.42c171.64,183.83,261.06-64.49,274.27-152.68,29.35,173.98-89.58,378.88-297.71,431.86,6.61-5.33,43.57-50.86,48.84-61.79-38.76,7.82-122.94,3.82-141.38-5.61l-5.74,23.11Z"/>
  </g>
  <path class="cls-1" d="M341.22,406.4l-256.42,113.78c-38.5-98.25-33.42-170.54-12.05-246.75,1.03-3.67-7.91-15.05-6.54-18.54,9.12-23.09,17.79-34.75,31.82-56.89,64.32,135,110.11,188.75,243.18,208.4Z"/>
  <path class="cls-1" d="M158.74,324.43C131.77,130.9,436.02,11.61,599.79,139.83c60.42,47.31,57.85,45.32,57.85,45.32C517.09-6.76,202.44,9,103.82,224.57l54.92,99.86Z"/>
  <g id="Layer_13" data-name="Layer 13">
    <path class="cls-1" d="M676.04,212.51c-32.86-95.51-171.4-166.25-262.36-165.62-29.4-17.73-28.3-.74-49.42-8.44-16.15-5.03-34.15,1.33-41.87,8.44s-7.9,9.92-21.95,7.23-26.91,3.74-30.77,7.6-8.68,13.73-15.6,13.73-28.12,4.47-35.83,10.38c-9.64,7.39-14.79,18.32-14.79,18.32l-3.05,6.71c-1.69,5.18-62.52,185.51-62.52,185.51l40.5,41.79c-2.39-31.31,5.22-86.9,49.73-149.75,13.82-19.51,31.33-6.15,40.27-44.4l29.4-17.64s11.67.41,30.71-4.54c24.75-6.43,15.46-11.97,21.27-15.75,8.65-5.62,2.83,1.93,24.69.64,7.38-.43,15.43-5.14,15.43-5.14,0,0,15.12,3.86,22.18,0,4.41-2.41,9.12-4.8,9.97-7.78.29-1.02,13.42-3.1,14.48-3.09,76.8,1.23,165.52,41.08,239.52,121.8Z"/>
  </g>
</svg>