<?xml version="1.0" encoding="UTF-8"?>
<svg id="DarkGreyDesign" xmlns="http://www.w3.org/2000/svg" xmlns:xlink="http://www.w3.org/1999/xlink" viewBox="0 0 771.11 810">
  <defs>
    <style>
      .cls-1 {
        fill: none;
      }

      .cls-2 {
        fill: #191919;
      }
    </style>
    <clipPath id="clippath">
      <path class="cls-1" d="M662.27,559.38c-83.84,90.93-156.94,39.74-241.51,18.45,0,0-63.11,33.36-85.33,31.6-22.22-1.76-65.65-52.95-75.93-52.02-10.28.94-34.35-42.7-42.39-59.84C37.11,201.21,402.63-71.9,663.43,193.18c-49.62-92.79-213.37-158.72-275.04-135.74,0,0-42.85-3.32-42.85-3.32-20.92,7.1-66.84,27.44-87.43,36.52-57.21,27.64-100.93,71.68-100.93,71.68-1.9,2.94-53.04,92.68-53.04,92.68l-25.21,108.77s4.04,89.64,11.9,119.95c4.29,16.55,19.93,53.82,29.71,67.85,23.78,34.1,119.57,115.57,119.57,115.57,0,0,141.55,39.68,141.55,39.68,0,0,150.35.26,150.35.26l-2.68,19.81,79.31-62.88,54.72-86.45-1.09-18.19Z"/>
    </clipPath>
  </defs>
  <path id="RightPointy" class="cls-2" d="M477.96,567c124.35,76.07,217.07-47.76,237.09-157.52,1.28,155.34-114.91,313.28-265.37,367.09,71.02-56.34,62.72-134.8,28.29-209.57ZM529.39,617.63c6.24,16.07,8.78,65.43,3.86,83.41,25.12-16.19,72.52-56.38,92.57-95.75-23.59,15.39-66.75,24.54-96.43,12.34Z"/>
  <g id="Mid-Drift">
    <g id="BottomRiidge">
      <path class="cls-2" d="M504.92,680.03l-6.38,29.68c-23.79,27.64-164.57,19.46-190.93.74-3.1-2.2-3.85-41.27-7.16-43.31,44.45,27.31,142.16,31.47,204.48,12.89Z"/>
    </g>
    <g id="right">
      <path class="cls-2" d="M510.11,655.17c-.22-25.85-22.4-95.14-57-117.74-7.67-6.8-17.25-20.57-26.89-10.93s-18.67,18.94-25.18,23.14c-5.81,3.75-14.36,7.39-14.36,11.25s9.64,13.46,21.21,25.21c11.57,11.75,30.21,32.97,50.79,45.83,22.03,13.77,50.3,29.19,51.43,23.24Z"/>
    </g>
    <g id="Left-Gray">
      <path class="cls-2" d="M385.86,560.89c26.1,25.96,30.23,22.93,61.09,25.36-44.69,32.86-112.52,49.89-158.75,23.58,0-5.32-7.2-20.54-6.59-30.66.61-10.12-.01-15.16,3.91-14.63,13.63,1.81,91.42,3.8,100.34-3.66Z"/>
    </g>
  </g>
  <g id="BottomLeftPointy">
    <g id="Shadow">
      <path class="cls-2" d="M258.54,592.96c1.79,51.24,15.66,117.5,15.66,117.5-35.72-10.97-120.47-119.87-127.52-159.56l124.39-65.55s-14.32,56.38-12.53,107.62ZM254.96,509.5l-94.82,47.06c5.55,24.5,50.3,88.29,93.78,106.86-.35,7.37-5.44-30.32-7.08-71.59-2.16-54.14,8.13-82.33,8.13-82.33Z"/>
    </g>
    <path class="cls-2" d="M318.75,741.53c-26.96-81.5-46.89-231.58,10.92-311.67-42.09,23.01-177.81,91.17-221.33,116.48,24.61,63.01,104.81,138.43,157.27,159.5-2.15-8.39-6.5-30.37-8.57-35.82-37.41-15.13-97.53-70.86-107.91-117.75h0c5.54-3.9,114.19-59.01,117.94-62.04-29.52,59.95-5.11,179.09,11.6,237.62-.29.53,39.66,14.1,40.08,13.67Z"/>
    <g id="Light">
      <path class="cls-2" d="M257.04,599.49c-21.04-12.95-50.83-41.76-53.19-65.19.13-8.58,16.68-13.97,23.39-16.71,7.61-3.67,10.85-3.25,12.06.43,4.98,15.26,11.68,19.21,16.29,24.2,2.45,2.65,3.36,18.62,3.14,28.5-.34,15.22,2.74,31.49-1.68,28.77Z"/>
    </g>
  </g>
  <path class="cls-2" d="M112.07,284.42l36.4,51.93c22.32,20,69.26,58.31,93.66,75.46l-139.63,71.91-14.27-35.95-6.33-51.49,5.81-81.11-12.33-30.21,5.32-22.19,31.39,21.65ZM97.6,320.93c-6.85,20.97-8.51,101.87,9.99,137.82l65.91-26.84c-4.87-20.08-12.98-56.05-12.98-56.05-27.98-22.43-60.63-62.02-62.92-54.93Z"/>
  <path class="cls-2" d="M315.32,409.15l-224.71,98.91c-33.63-66.28-32.25-155.72-15.26-223.1l16.04,28.61c-8.83,50.35-8.71,105.57,9.63,157.01,12.6-7.35,107.07-50.79,123.21-57.85-64.17-33.24-144.42-127.09-149.99-155.59-1.15-5.9,23.21-48.2,23.21-48.2,26,79.42,99.35,192.22,217.86,200.21Z"/>
  <path class="cls-2" d="M111.61,267.74c-.54-39.06,41.56-109.41,99.89-148.17-1.29-4.18-1.29,53.04,18.96,59.95,2.37.81,5.07-3.59,16.93-9.38s8.11-13.02,12.05-22.61c4.77-11.57,1.23-56.89,7.02-59.14,3.9-1.51,10.52,10.19,22.29,20.04,9.21,7.71,7.93,11.79,13.09,13.07,6.53,1.63,16.05,2.89,38.87-8.68,4.62-2.34-9.96-39.54-20.57-42.43s.75-7.71,9.54-4.82,16.94,25.07,20.1,30.86,29.83,6.75,33.37,1.93,17.04.96,24.75-.96,14.46-10.61,12.54-20.25-12.54-28.93-20.25-29.89-27.96,0-30.86,3.86-14.02-4.55-19.55-4.2-26.74,9.99-28.67,12.88-9.77,4.82-9.77,4.82c-19.09-7.28-34.15-.21-45.32,14.47-21.05,7.59-43.98,11.5-53.55,19.61-4.44,3.76-2.04,12.99-5.46,15.11-47.25,29.25-86.26,85.57-103.65,133.3,5.29,19.29,8.27,20.65,8.27,20.65Z"/>
</svg>