<?xml version="1.0" encoding="UTF-8"?>
<svg xmlns="http://www.w3.org/2000/svg" xmlns:xlink="http://www.w3.org/1999/xlink" viewBox="0 0 771.11 810">
  <defs>
    <style>
      .cls-1, .cls-2 {
        fill: #fff;
      }

      .cls-1, .cls-3 {
        stroke: #fff;
        stroke-miterlimit: 10;
      }

      .cls-3, .cls-4 {
        fill: none;
      }

      .cls-5 {
        clip-path: url(#clippath-1);
      }

      .cls-6 {
        fill: #191919;
      }

      .cls-7 {
        clip-path: url(#clippath);
      }
    </style>
    <clipPath id="clippath">
      <path class="cls-1" d="M321.08,750.14c-17.36-4.74-35.21-12.45-50.61-18.6l-4.39-19.59c-96.86-43.37-150.06-119.75-177.68-173.23l257-125.36c-24.32,41.6-44.61,94.03-40.15,139.5,0,0,15.47,3.7,41.87,2.67,14.23-.56,18.56.88,23.74-3.54s3.91-6.61,17.27-10.62c17.7-5.31,31.08-29.54,36.26-29.54s14.1-.12,18.42,3.42c171.64,183.83,261.06-64.49,274.27-152.68,29.35,173.98-89.58,378.88-297.71,431.86,6.61-5.33,43.57-50.86,48.84-61.79-38.76,7.82-122.94,3.82-141.38-5.61l-5.74,23.11Z"/>
    </clipPath>
    <clipPath id="clippath-1">
      <path class="cls-4" d="M662.27,559.38c-83.84,90.93-156.94,39.74-241.51,18.45,0,0-63.11,33.36-85.33,31.6-22.22-1.76-65.65-52.95-75.93-52.02-10.28.94-34.35-42.7-42.39-59.84C37.11,201.21,402.63-71.9,663.43,193.18c-49.62-92.79-213.37-158.72-275.04-135.74,0,0-42.85-3.32-42.85-3.32-20.92,7.1-66.84,27.44-87.43,36.52-57.21,27.64-100.93,71.68-100.93,71.68-1.9,2.94-53.04,92.68-53.04,92.68l-25.21,108.77s4.04,89.64,11.9,119.95c4.29,16.55,19.93,53.82,29.71,67.85,23.78,34.1,119.57,115.57,119.57,115.57,0,0,141.55,39.68,141.55,39.68,0,0,150.35.26,150.35.26l-2.68,19.81,79.31-62.88,54.72-86.45-1.09-18.19Z"/>
    </clipPath>
  </defs>
  <g id="BACKSEAL">
    <polyline class="cls-1" points="92.83 506.83 109.21 541.93 231.65 485.01 214.53 445.98 108.42 498.74"/>
    <g>
      <path class="cls-2" d="M321.08,750.14c-17.36-4.74-35.21-12.45-50.61-18.6l-4.39-19.59c-96.86-43.37-150.06-119.75-177.68-173.23l257-125.36c-24.32,41.6-44.61,94.03-40.15,139.5,0,0,15.47,3.7,41.87,2.67,14.23-.56,18.56.88,23.74-3.54s3.91-6.61,17.27-10.62c17.7-5.31,31.08-29.54,36.26-29.54s14.1-.12,18.42,3.42c171.64,183.83,261.06-64.49,274.27-152.68,29.35,173.98-89.58,378.88-297.71,431.86,6.61-5.33,43.57-50.86,48.84-61.79-38.76,7.82-122.94,3.82-141.38-5.61l-5.74,23.11Z"/>
      <g class="cls-7">
        <rect class="cls-1" x="4.82" y="330.78" width="754.71" height="539.64"/>
      </g>
      <path class="cls-3" d="M321.08,750.14c-17.36-4.74-35.21-12.45-50.61-18.6l-4.39-19.59c-96.86-43.37-150.06-119.75-177.68-173.23l257-125.36c-24.32,41.6-44.61,94.03-40.15,139.5,0,0,15.47,3.7,41.87,2.67,14.23-.56,18.56.88,23.74-3.54s3.91-6.61,17.27-10.62c17.7-5.31,31.08-29.54,36.26-29.54s14.1-.12,18.42,3.42c171.64,183.83,261.06-64.49,274.27-152.68,29.35,173.98-89.58,378.88-297.71,431.86,6.61-5.33,43.57-50.86,48.84-61.79-38.76,7.82-122.94,3.82-141.38-5.61l-5.74,23.11Z"/>
    </g>
    <path class="cls-1" d="M341.22,406.4l-256.42,113.78c-38.5-98.25-33.42-170.54-12.05-246.75,1.03-3.67-7.91-15.05-6.54-18.54,9.12-23.09,17.79-34.75,31.82-56.89,64.32,135,110.11,188.75,243.18,208.4Z"/>
    <path class="cls-1" d="M158.74,324.43C131.77,130.9,436.02,11.61,599.79,139.83c60.42,47.31,57.85,45.32,57.85,45.32C517.09-6.76,202.44,9,103.82,224.57l54.92,99.86Z"/>
    <g id="Layer_13" data-name="Layer 13">
      <path class="cls-1" d="M676.04,212.51c-32.86-95.51-171.4-166.25-262.36-165.62-29.4-17.73-28.3-.74-49.42-8.44-16.15-5.03-34.15,1.33-41.87,8.44s-7.9,9.92-21.95,7.23-26.91,3.74-30.77,7.6-8.68,13.73-15.6,13.73-28.12,4.47-35.83,10.38c-9.64,7.39-14.79,18.32-14.79,18.32l-3.05,6.71c-1.69,5.18-62.52,185.51-62.52,185.51l40.5,41.79c-2.39-31.31,5.22-86.9,49.73-149.75,13.82-19.51,31.33-6.15,40.27-44.4l29.4-17.64s11.67.41,30.71-4.54c24.75-6.43,15.46-11.97,21.27-15.75,8.65-5.62,2.83,1.93,24.69.64,7.38-.43,15.43-5.14,15.43-5.14,0,0,15.12,3.86,22.18,0,4.41-2.41,9.12-4.8,9.97-7.78.29-1.02,13.42-3.1,14.48-3.09,76.8,1.23,165.52,41.08,239.52,121.8Z"/>
    </g>
  </g>
  <g id="AnimationLayer">
    <g class="cls-5">
      <path id="Dark" class="cls-6" d="M879.76,415.61c-10.3,603.36-907.78,603.26-918-.02,10.3-603.34,907.78-603.24,918,.02Z"/>
    </g>
  </g>
  <g id="DarkGreyDesign">
    <path id="RightPointy" class="cls-6" d="M477.96,567c124.35,76.07,217.07-47.76,237.09-157.52,1.28,155.34-114.91,313.28-265.37,367.09,71.02-56.34,62.72-134.8,28.29-209.57ZM529.39,617.63c6.24,16.07,8.78,65.43,3.86,83.41,25.12-16.19,72.52-56.38,92.57-95.75-23.59,15.39-66.75,24.54-96.43,12.34Z"/>
    <g id="Mid-Drift">
      <g id="BottomRiidge">
        <path class="cls-6" d="M504.92,680.03l-6.38,29.68c-23.79,27.64-164.57,19.46-190.93.74-3.1-2.2-3.85-41.27-7.16-43.31,44.45,27.31,142.16,31.47,204.48,12.89Z"/>
      </g>
      <g id="right">
        <path class="cls-6" d="M510.11,655.17c-.22-25.85-22.4-95.14-57-117.74-7.67-6.8-17.25-20.57-26.89-10.93s-18.67,18.94-25.18,23.14c-5.81,3.75-14.36,7.39-14.36,11.25s9.64,13.46,21.21,25.21c11.57,11.75,30.21,32.97,50.79,45.83,22.03,13.77,50.3,29.19,51.43,23.24Z"/>
      </g>
      <g id="Left-Gray">
        <path class="cls-6" d="M385.86,560.89c26.1,25.96,30.23,22.93,61.09,25.36-44.69,32.86-112.52,49.89-158.75,23.58,0-5.32-7.2-20.54-6.59-30.66.61-10.12-.01-15.16,3.91-14.63,13.63,1.81,91.42,3.8,100.34-3.66Z"/>
      </g>
    </g>
    <g id="BottomLeftPointy">
      <g id="Shadow">
        <path class="cls-6" d="M258.54,592.96c1.79,51.24,15.66,117.5,15.66,117.5-35.72-10.97-120.47-119.87-127.52-159.56l124.39-65.55s-14.32,56.38-12.53,107.62ZM254.96,509.5l-94.82,47.06c5.55,24.5,50.3,88.29,93.78,106.86-.35,7.37-5.44-30.32-7.08-71.59-2.16-54.14,8.13-82.33,8.13-82.33Z"/>
      </g>
      <path class="cls-6" d="M318.75,741.53c-26.96-81.5-46.89-231.58,10.92-311.67-42.09,23.01-177.81,91.17-221.33,116.48,24.61,63.01,104.81,138.43,157.27,159.5-2.15-8.39-6.5-30.37-8.57-35.82-37.41-15.13-97.53-70.86-107.91-117.75h0c5.54-3.9,114.19-59.01,117.94-62.04-29.52,59.95-5.11,179.09,11.6,237.62-.29.53,39.66,14.1,40.08,13.67Z"/>
      <g id="Light">
        <path class="cls-6" d="M257.04,599.49c-21.04-12.95-50.83-41.76-53.19-65.19.13-8.58,16.68-13.97,23.39-16.71,7.61-3.67,10.85-3.25,12.06.43,4.98,15.26,11.68,19.21,16.29,24.2,2.45,2.65,3.36,18.62,3.14,28.5-.34,15.22,2.74,31.49-1.68,28.77Z"/>
      </g>
    </g>
    <path class="cls-6" d="M112.07,284.42l36.4,51.93c22.32,20,69.26,58.31,93.66,75.46l-139.63,71.91-14.27-35.95-6.33-51.49,5.81-81.11-12.33-30.21,5.32-22.19,31.39,21.65ZM97.6,320.93c-6.85,20.97-8.51,101.87,9.99,137.82l65.91-26.84c-4.87-20.08-12.98-56.05-12.98-56.05-27.98-22.43-60.63-62.02-62.92-54.93Z"/>
    <path class="cls-6" d="M315.32,409.15l-224.71,98.91c-33.63-66.28-32.25-155.72-15.26-223.1l16.04,28.61c-8.83,50.35-8.71,105.57,9.63,157.01,12.6-7.35,107.07-50.79,123.21-57.85-64.17-33.24-144.42-127.09-149.99-155.59-1.15-5.9,23.21-48.2,23.21-48.2,26,79.42,99.35,192.22,217.86,200.21Z"/>
    <path class="cls-6" d="M111.61,267.74c-.54-39.06,41.56-109.41,99.89-148.17-1.29-4.18-1.29,53.04,18.96,59.95,2.37.81,5.07-3.59,16.93-9.38s8.11-13.02,12.05-22.61c4.77-11.57,1.23-56.89,7.02-59.14,3.9-1.51,10.52,10.19,22.29,20.04,9.21,7.71,7.93,11.79,13.09,13.07,6.53,1.63,16.05,2.89,38.87-8.68,4.62-2.34-9.96-39.54-20.57-42.43s.75-7.71,9.54-4.82,16.94,25.07,20.1,30.86,29.83,6.75,33.37,1.93,17.04.96,24.75-.96,14.46-10.61,12.54-20.25-12.54-28.93-20.25-29.89-27.96,0-30.86,3.86-14.02-4.55-19.55-4.2-26.74,9.99-28.67,12.88-9.77,4.82-9.77,4.82c-19.09-7.28-34.15-.21-45.32,14.47-21.05,7.59-43.98,11.5-53.55,19.61-4.44,3.76-2.04,12.99-5.46,15.11-47.25,29.25-86.26,85.57-103.65,133.3,5.29,19.29,8.27,20.65,8.27,20.65Z"/>
  </g>
</svg>