<?xml version="1.0" encoding="UTF-8"?>
<svg id="AnimationLayer" xmlns="http://www.w3.org/2000/svg" xmlns:xlink="http://www.w3.org/1999/xlink" viewBox="0 0 771.11 810">
  <defs>
    <style>
      .cls-1 {
        fill: none;
      }

      .cls-2 {
        fill: #191919;
      }

      .cls-3 {
        clip-path: url(#clippath);
      }
    </style>
    <clipPath id="clippath">
      <path class="cls-1" d="M662.27,559.38c-83.84,90.93-156.94,39.74-241.51,18.45,0,0-63.11,33.36-85.33,31.6-22.22-1.76-65.65-52.95-75.93-52.02-10.28.94-34.35-42.7-42.39-59.84C37.11,201.21,402.63-71.9,663.43,193.18c-49.62-92.79-213.37-158.72-275.04-135.74,0,0-42.85-3.32-42.85-3.32-20.92,7.1-66.84,27.44-87.43,36.52-57.21,27.64-100.93,71.68-100.93,71.68-1.9,2.94-53.04,92.68-53.04,92.68l-25.21,108.77s4.04,89.64,11.9,119.95c4.29,16.55,19.93,53.82,29.71,67.85,23.78,34.1,119.57,115.57,119.57,115.57,0,0,141.55,39.68,141.55,39.68,0,0,150.35.26,150.35.26l-2.68,19.81,79.31-62.88,54.72-86.45-1.09-18.19Z"/>
    </clipPath>
  </defs>
  <g class="cls-3">
    <path id="Dark" class="cls-2" d="M879.76,415.61c-10.3,603.36-907.78,603.26-918-.02,10.3-603.34,907.78-603.24,918,.02Z"/>
  </g>
</svg>